<?xml version="1.0" encoding="UTF-8"?>
<svg version="1.1" viewBox="0 0 1706 2048" width="1706" height="2048" xmlns="http://www.w3.org/2000/svg">
<path transform="translate(0)" d="m0 0h1706v2048h-1706z" fill="#FCFCFC"/>
<path transform="translate(969,646)" d="m0 0h7l10 4 8 8 9 12 20 26 8 8v2h2v2h2l7 8 9 8 12 5h51l12-8 9-10h2l2-4 8-8 4-8 8-6 5-5 6-4 8-4h7l7 7v3h3l1 17 1 7v18l-3 15-6 13-4 16 33-6 21-3h7l12 3 12 6 11 7 11 8 11 11 6 12 2 13 4 11 2 2v14l-4 7-7 8-15 8-1 3 1 4 11 11v2h2l10 13 9 16 7 18 3 11 2 16v46l-2 20-2 9-2 10-3 11-3 8-7 17-12 23-12 17-11 13-2 3h-2l-2 4-16 17-7 7-8 7-7 7-8 7-8 6-7 8-9 7h-2l-1 3-11 9-11 10-11 9-8 8-11 9-14 13-8 7-13 11-11 11-11 9-7 6-4 5-11 9-5 1-11-9-18-18-8-7-13-11-24-22-11-9-11-11-11-9-13-12-16-13-11-10-11-9-16-15-15-15-3-2v-2l-3-1v-2h-2l-7-8-14-15-11-16-9-13-8-16-8-19-7-28-3-16v-9h-2v8l-4 23-5 19-7 19-10 21-10 16-9 12-13 16-14 15-23 23-8 7-15 14-11 9-12 11-11 9-12 11-11 9-13 12-11 9-14 13-8 7-12 11-8 7-7 7-8 7-7 7-8 7-5 4-8 1-5-3-10-9-16-15-26-24-8-7-11-10-11-9-12-11-11-9-13-12-11-9-12-11-11-9-14-13-8-7-15-14-20-20-7-8-14-17-14-21-8-14-7-16-8-24-5-24-3-29v-36l3-21 4-15 8-20 8-14 10-14 12-13 10-9 14-10 21-11 17-6 16-4 16-2h24l21 3 18 5 17 7 14 8 13 9 13 11 14 14 9 11h2l8-10 13-14 8-7 16-12 16-9 18-8 23-6 15-2h25l21 3 21 6 18 8 15 9 13 10 17 17 11 15 9 16 8 21 6 22 4-15 4-10 6-14 8-14 9-14 1-2v-23l-3-7 1-4-3-5-3-7-3-8-1-1-1-9v-15l4-10 8-13 5-8 2-6 2-19v-4l5-15 8-11 1-3 5-2 8-4 11-3 10-4 3-1 1-2 4-1h7l6 2v2l5 2 5 3v3l4 2 16 14 7 7 16 8 9 4v-12l-2-17-5-19-4-13v-29l3-6z" fill="#F5D52F"/>
<path transform="translate(370,839)" d="m0 0h33l21 4 17 6 16 8 14 9 10 8 13 12 9 10 11 15 3 5 2 1 2-5 10-14 11-12 13-13 15-11 18-10 14-6 18-5 13-2h32l18 3 21 7 16 8 10 6 9 7 10 9 7 7 9 12 9 15 7 16 5 17 2 11 1 11v32l-2 24-5 25-6 20-9 21-9 16-12 17-13 16-14 15-24 24-8 7-13 12-8 7-14 12-10 9-11 9-12 11-11 9-13 12-11 9-7 7-8 7-10 9-13 12-8 7-7 7-8 7-4 4h-3v-2h-2v-2l-4-2-11-11-8-7-26-24-8-7-11-10-11-9-13-12-11-9-13-12-11-9-11-10-11-9-15-14-16-14v-2l-4-2-18-18-7-8-12-14-13-18-11-19-8-18-6-18-4-16-4-29-1-15v-24l2-17 5-21 9-21 9-15 9-11 6-7 8-7 10-8 18-11 20-8 21-5z" fill="#F6D62F"/>
<path transform="translate(969,652)" d="m0 0h9l6 2 2 1v2h2v2h2v2l4 2 4 7 2 2 2 5h2l1 3 5 5 3 4v3l3 1v2l2 1 3 3v2h2l4 6 3 2v2l4 2 1 3 3 1v2h2v2h2l5 5 5 3 6 3v2l5-1v2l3-1h51l3-3 5-2 5-5h2v-2l6-5 9-11 12-14 5-6 3-3 7-4 5-3 6 2 5 8 1 8 1 1v37l-4 11-8 20-1 4v11h-2l-2 5-11 8-1 2h-2l-2 4h4l5-3 9-8 1 3-1 9-1 5v7l3 2 8-4 5-5 8-10h2v2l5-1-2-4v-4l14-14 4-5 7-3 2 1v-2h15l8 3 16 8 3 3 5 2 1 2 3 1v2h3l1 2 4 2 7 7 3 5 2 6 2 10 2 9 4 8 2 3v9l-3 5h-2l-2 4h-2l-2 4-11 7-7 3-5-1 1-7 12-25 5-14-1-3-1 2h-2l-2 6-4 9-5 4-1 9-2 5h-2l1 3h-2l-1 4-5 1-7-4-9-4-13-5-5-1-6-2-7-1-5-1-6-1-11-1h-9l-13 1-7 2-12 3-14 5-12 5-5 1-1 2-15 10-6 5h-2v2l-5 3-1 2h-2l-2 4-9 8-4 7-4 2-2 6-7 10-4-1-3-5-2-1-1-3-4-4-1-3-5-5v-3l-3-1-6-7-5-5-4-3v-2l-5-2-7-5-2-2-6-4-6-3v-2l-6-2-7-3-12-5-6-1-6-2-7-1-4-1-14-2h-13l-12 1v1h-7l-5 2-6 1-4 2-5 1-10 4-6 2-12 7-11 7-4 1-1-2 5-17 2-6h2l1-7-2-1-2 4-8 15-3 18h-2l-2-8v-3h-2l-2-7-1-7h-2l-2-10-2-1-1-6-2-5-1-6v-14h2l1-6 8-14 5-8 2-1 2-6 2-25 4-14 2-6 7-6 4-4 12-3 9-2v-2l10-4 2 1 1-2 8-1 8 4v2l4 2 2 4 5 2 2 3 5 3 6 7 9 9 8 2 11 6 7 8 7 11 3 9 3 11 1 10 2 7 2 10-4 1-11-11-1-3-4-1v2l5 8 3 2v2l4 1v2l5 2 2 1v2h8l-1-8-3-8-4-18-1-4v-3h-2l1-6 5 2 1 3 4 3 1-6-2-1-5-5-7-8-4-4-2-3-1-6-1-23-2-7-1-8-2-9-1-3-3-17v-25z" fill="#F5D530"/>
<path transform="translate(969,646)" d="m0 0h7l10 4 8 8 9 12 20 26 8 8v2h2v2h2l7 8 9 8 12 5h51l12-8 9-10h2l2-4 8-8 4-8 8-6 5-5 6-4 8-4h7l7 7v3h3l1 17 1 7v18l-3 15-6 13-4 16 33-6 21-3h7l12 3 12 6 11 7 11 8 11 11 6 12 2 13 4 11 2 2v14l-4 7-7 8-15 8-1 3 1 4 11 11v2h2l10 13 9 16 7 18 3 11 2 16v46l-2 20-2 9-2 10-3 11-3 8-7 17-12 23-12 17-11 13-2 3h-2l-2 4-16 17-7 7-8 7-7 7-8 7-8 6-7 8-9 7h-2l-1 3-11 9-11 10-11 9-8 8-11 9-14 13-8 7-13 11-11 11-11 9-7 6-4 5-11 9-5 1-11-9-18-18-8-7-13-11-24-22-11-9-11-11-11-9-13-12-16-13-11-10-11-9-16-15-15-15-3-2v-2l-3-1v-2h-2l-7-8-14-15-11-16-9-13-8-16-8-19-7-28-3-16v-9h-2v8l-4 23-5 19-7 19-10 21-10 16-9 12-13 16-14 15-23 23-8 7-15 14-11 9-12 11-11 9-12 11-11 9-13 12-11 9-14 13-8 7-12 11-8 7-7 7-8 7-7 7-8 7-5 4-8 1-5-3-10-9-16-15-26-24-8-7-11-10-11-9-12-11-11-9-13-12-11-9-12-11-11-9-14-13-8-7-15-14-20-20-7-8-14-17-14-21-8-14-7-16-8-24-5-24-3-29v-36l3-21 4-15 8-20 8-14 10-14 12-13 10-9 14-10 21-11 17-6 16-4 16-2h24l21 3 18 5 17 7 14 8 13 9 13 11 14 14 9 11h2l8-10 13-14 8-7 16-12 16-9 18-8 23-6 15-2h25l21 3 21 6 18 8 15 9 13 10 17 17 11 15 9 16 8 21 6 22 4-15 4-10 6-14 8-14 9-14 1-2v-23l-3-7 1-4-3-5-3-7-3-8-1-1-1-9v-15l4-10 8-13 5-8 2-6 2-19v-4l5-15 8-11 1-3 5-2 8-4 11-3 10-4 3-1 1-2 4-1h7l6 2v2l5 2 5 3v3l4 2 16 14 7 7 16 8 9 4v-12l-2-17-5-19-4-13v-29l3-6zm0 6-3 6v25l3 17 3 12 1 8 2 7 1 23 2 7 3 5 5 5 9 8v2h2l-1 6-4-3-2-4-4-1-1 6h2v6l2 7 5 19 2 7-1 2h-7l-1-2-4-3h-2v-2l-4-1v-2l-5-4-4-7 3-1 2 1 3 5 8 7 2 2 3-1-3-15-2-9-1-8-5-15-7-11-7-8-11-6-9-3-10-10-6-7-3-1-5-5h-2l-2-4-4-2-1-3-7-3-9 1v2l-3-1-9 4v2l-18 4-6 3-5 6-4 4-2 9-3 9-2 25-2 6-3 3-10 16-3 6v4l-2 1v16l2 7 2 4v3l2 2 2 7v2h2l1 9 2 5h2l1 9 1 2h2l3-18 8-15 2-4 2 1-1 7-2 1-3 8-4 15h4l5-2 9-6 7-4 6-3 9-4 5-1 9-3 9-2 3-1h5l3-1 9-1h13l11 1 3 1 7 1 5 1 8 3 6 1 14 6 6 3h2v2l9 5 4 2 5 5 6 4h2v2l6 5 5 5 5 6h2l1 4 2 2 3 4 2 4 2 1 1 3 2 1 3 5 4 1 7-10 2-6 4-2 5-8 8-7 2-4h2l4-4 2-1v-2l5-2 7-6 12-7v-2l5-1 12-5 8-3 10-3 12-3 7-1 9-1h9l15 1 2 1 8 1 5 1 8 3 11 3 10 5 5 2 5 3 5-1 1-4 2-1-1-2h2l3-8v-6l5-4 3-7 3-6v-2h2l1-2 1 4-6 15-8 17-4 8v5l5 1 5-2 12-7 3-3v-2l4-2v-2h2l3-5v-9l-2-4-3-5-4-15-2-10-4-7-8-8-3-1-1-2h-3v-2l-3-1-4-4-4-1-3-3-14-7-8-3h-15v2l-3-1-8 5-9 10-5 6-2 1 1 5v4h-4v-2l-4 2-7 9-4 4-9 4-2-2v-11l1-5 1-8-8 6-4 4-6 2v-2l1-3h2l5-5 8-6 1-4 2-1v-10l3-9 3-8 4-9 3-9v-37l-1-2-1-7-6-9-6-1-8 6-3 1-7 8-10 11-9 11-7 8-2 1v2h-2l-5 5-7 3-2 2h-51l-2 1v-2l-5 1v-2l-8-4-7-5-1-2h-2v-2h-2l-1-3h-2l-2-4-3-1v-2l-5-4-2-4h-2l-1-3-2-2-2-1-1-3h-2l-1-4-5-7-2-1-1-3h-2l-2-6-3-3-5-7h-2v-2h-2v-2h-2l-1-3-5-1-2-1zm-599 187-17 3-17 5-18 8-18 12-12 11-5 5-9 10-10 15-8 17-5 15-4 20-1 11v24l2 24 4 25 7 24 9 21 10 18 13 18 11 13 9 10 7 8 14 14h2v2l8 7 16 15 11 9 12 11 11 9 12 11 11 9 12 11 8 7 14 12 13 12 10 9 8 7 17 16 8 7 7 7h2v2h2v2l4-1 9-9 8-7 7-7 8-7 12-11 11-10 8-7 10-9 11-9 13-12 8-7 28-24 10-9 8-7 10-9 8-7 15-14 24-24 7-8 12-15 14-21 8-16 5-11 7-21 5-23 2-16 1-14v-32l-2-17-5-19-5-12-7-14-10-15-12-13-12-11-14-9-16-8-16-6-17-4-8-1h-32l-17 3-17 5-19 9-16 10-13 11-17 17-11 15-4 6v2l-4-4-9-13-13-15-7-7-11-9-14-10-15-8-19-7-17-4-7-1zm551 15-16 3-7 2-8 3-7 3-15 8-8 6-10 9-2 1v2l-4 2-2 4h-2l-5 7v2h-2l-5 8-8 17-3 8-4 16-2 9v36l2 23 3 17 2 8 3 11 3 8 6 15 5 8 3 7h2l1 4 10 14 3 5 2 2 2 1 2 4h2l2 4 7 7v2h2l2 4 5 5h2v2l8 7 2 3h2v2h2l1 2 5 5h2v2h2l2 4 5 3 3 4h2l1 2 6 5 7 7h2l1 3 6 4 5 5 7 6h2l2 4 5 3 2 3 4 2 1 2h2l2 4 11 9 6 5 3 3 6 5 1 2h2l1 2 5 5h2l1 3 7 6h3v2l11 11h3l1 3h2v2h2l2 4 11 9 7 7h2l2 4 4 1 6-5 3-3v-2h2l5-5 7-6 10-9 4-5 5-3 2-4h2l4-4v-2l5-2 8-7 3-3v-2l5-2 10-9 8-6 5-5 13-12 8-6 12-11v-2l4-1v-2l4-2 8-7v-2h2l4-5 6-4 6-5 1-2 7-6 6-6v-2h2v-2l3-1 5-4 3-4 15-15 4-6v-2l4-2 4-5v-3l3-1 4-7 4-5 4-6v-4h2l6-13 2-5 3-7 5-15 1-7 1-4 2-7v-7l1-4 2-11v-46l-2-11-1-2v-5l-4-10-3-10-3-4-2-5h-2l-1-6-5-6-2-4h-2l-2-4-2-2-6-7-3-3h-3l-2-4-3-1-3-3-6-4h-2v-2l-5-1-1-2-8-4-11-4-16-4-10-2h-29l-11 2-20 5v2l-7 1-10 6-7 4-6 4-11 8-17 17-3 5-2 1-3 5v2h-2l-4 7-7 8-3 1h-7l-5-2-8-11-2-3-3 1v43l-1 26-2 13v8l5 5h3l1 3 3 1 3 3 6 5h3l1 3 10 6h3l1 2 5 2 4 2 10 3h14l7-3 8-5v-2h2l2-3h2l-1 4-4 2-5 5-6 3-7 2h-11l-8-2-2 1v-2l-10-4h-3l-1-2-11-7-4-1-1-3h-3l-2-4-4-1-1-2-7-6-4-2-6 24-6 13-3 6v2h-2l-6 8-8 6-9 3-1 2-2-1h-12l-12-5-4-2-4-1v-2l-4-1v-2h-2l-2-4-2-3h-2l-2-4-4-6h-2v-3h-2l-1-5-5-10-4-10-2-7-3-13-1-18h1l1-9 3-8 7-8v-2l6-1 5-2h9l9 3 9 4 13 9 4 1 1 3 8 5 8 8h2v2l8 6 5 4 2 3h2l1 3 2-2 1-3v-54l-2-16v-8l-1-5-1-11-2-5-5-7-11-7-1-2-3-1-1-2-7-3-2-2-6-3h-2v-2l-10-2-1-2-11-3-9-3-8-1z" fill="#742FA4"/>
<path transform="translate(637,974)" d="m0 0 17 1 17 3 13 5 7 6 7 11 11 10 2 5v7l-4 10-6 9-9 10h-5l-3-4v-22l-3-1 1-3 2-1 1-17h4l1 11-1 32 5-5 7-9 4-9v-8l-6-7-5-5-4-5-5-8-10-5-13-3-13-2h-15l-10 4-6 4-4 13-3 10 4 2-1 3-5 1-4 12-3 6 12-5 10-2 13 1 10 5 10 9 6 10 3 7 1 5v11l-4 12-7 12-4 5-1 8 3 9 10 18 6 10 3 8v12l-3 14-7 12-10 8-13 6-9 2h-15l-12-4-14-8-10-6-9-3-5-1-104 1-12 3-23 12-13 4h-13l-12-4-10-6-6-7-4-8-2-7v-20l4-11 8-15 1-3v-11l-5-12-8-18-2-9v-8l4-11 8-10 11-8 10-5 11-3h19l13 5 12 8 12 9 7 2h16l5-2 9-11 6-5 6-2 10-1 9 3 8 7 5 7 3 1h24l10-6 16-12-5-2-3-10-1-23 5-5 27-18 9-4z" fill="#F5D530"/>
<path transform="translate(374,827)" d="m0 0h24l21 3 18 5 17 7 14 8 13 9 13 11 14 14 9 11h2l8-10 13-14 8-7 16-12 16-9 18-8 23-6 15-2h25l21 3 21 6 18 8 15 9 13 10 17 17 11 15 9 16 8 21 6 22 4-15 4-10 2-3v7l-2 5-5 15-1 16v32l3 28 1 2-1 7h-1l-3-16v-9h-2v8l-4 23-5 19-7 19-10 21-10 16-9 12-13 16-14 15-23 23-8 7-15 14-11 9-12 11-11 9-12 11-11 9-13 12-11 9-14 13-8 7-12 11-8 7-7 7-8 7-7 7-8 7-5 4-8 1-5-3-10-9-16-15-26-24-8-7-11-10-11-9-12-11-11-9-13-12-11-9-12-11-11-9-14-13-8-7-15-14-20-20-7-8-14-17-14-21-8-14-7-16-8-24-5-24-3-29v-36l3-21 4-15 8-20 8-14 10-14 12-13 10-9 14-10 21-11 17-6 16-4zm-4 12-17 3-17 5-18 8-18 12-12 11-5 5-9 10-10 15-8 17-5 15-4 20-1 11v24l2 24 4 25 7 24 9 21 10 18 13 18 11 13 9 10 7 8 14 14h2v2l8 7 16 15 11 9 12 11 11 9 12 11 11 9 12 11 8 7 14 12 13 12 10 9 8 7 17 16 8 7 7 7h2v2h2v2l4-1 9-9 8-7 7-7 8-7 12-11 11-10 8-7 10-9 11-9 13-12 8-7 28-24 10-9 8-7 10-9 8-7 15-14 24-24 7-8 12-15 14-21 8-16 5-11 7-21 5-23 2-16 1-14v-32l-2-17-5-19-5-12-7-14-10-15-12-13-12-11-14-9-16-8-16-6-17-4-8-1h-32l-17 3-17 5-19 9-16 10-13 11-17 17-11 15-4 6v2l-4-4-9-13-13-15-7-7-11-9-14-10-15-8-19-7-17-4-7-1z" fill="#774989"/>
<path transform="translate(954,949)" d="m0 0h6l4 2 6 2 5 3 6 3 12 8 3 3 4 3v2l4 1 1 3 5 2v2l5 2 1 3 3 1 2 2 2 1v2h2l4 4v2l4 1v10l-1 4-1 8-6 18-2 5-3 6-2 1-2 5-5 6-10 5h-18l-13-6-3-3-5-4-1-2-3-2-3-3v-2l-2-1-10-15-2-5-3-6-3-11-2-5-1-8-1-5v-16l2-6 2-7h2v-3l5-5 4-3 7-1z" fill="#F4D430"/>
<path transform="translate(637,974)" d="m0 0 17 1 17 3 13 5 7 6 7 11 11 10 2 5v7l-4 10-6 9-9 10h-5l-3-4v-22l-3-1 1-3 2-1 1-17h4l1 11-1 32 5-5 7-9 4-9v-8l-6-7-5-5-4-5-5-8-10-5-13-3-13-2h-15l-10 4-6 4-4 13-3 10 4 2-1 3-5 1-4 12-3 6 12-5 10-2 13 1 10 5 10 9 6 10 3 7 1 5v11l-4 12-7 12-4 5-1 8 3 9 10 18 6 10 3 8v12l-3 14-7 12-10 8-13 6-9 2h-15l-12-4-14-8-10-6-9-3-5-1-104 1-12 3-23 12-13 4h-13l-12-4-10-6-6-7-4-8-2-7v-20l4-11 8-15 1-3v-11l-5-12-8-18-2-9v-8l4-11 8-10 11-8 10-5 11-3h19l13 5 12 8 12 9 7 2h16l5-2 9-11 6-5 6-2 10-1 9 3 8 7 5 7 3 1h24l10-6 16-12-5-2-3-10-1-23 5-5 27-18 9-4zm-10 59-12 2-9 4-11 7-13 10-8 4-5 1-21-1-8-3-7-10-8-4-10 1-6 4-6 7-4 6-4 2-9 1h-11l-9-2-10-6-10-8-10-6-9-3h-18l-12 4-11 6-10 10-5 10v14l4 11 9 19 1 4v14l-12 24-1 4v18l4 11 6 8 10 6 10 3h12l14-5 20-11 14-3 13-1h94l16 5 10 6 6 5 8 4 9 2h12l12-3 11-6 6-5 5-8 3-10v-18l-7-14-7-11-5-10-2-7v-7l3-7 10-16 3-10v-10l-4-11-8-11-8-6-7-3z" fill="#743883"/>
<path transform="translate(969,646)" d="m0 0h7l10 4 8 8 9 12 20 26 8 8v2h2v2h2l7 8 9 8 12 5h51l12-8 9-10h2l2-4 8-8 4-8 8-6 5-5 6-4 8-4h7l7 7v3h3l1 17 1 7v18l-3 15-6 13-4 16 33-6 21-3h7l12 3 12 6 11 7 11 8 11 11 6 12 2 13 4 11 2 2v14l-4 7-7 8-15 8-1 3 1 4 6 7-4-1v-2l-4-2-2-4 1-5 4-2 2-5 5-2 5-4 5-6h2l1-4 1-1v-9l-2-4-4-7-3-13-2-10-4-7-7-7-4-2v-2h-3v-2l-4-1v-2l-7-2-1-3-6-2-6-3-1-2-6-1-5-1v-2h-15v2l-5 1-6 4-14 16h-2l3 9-4 1-2-1v-2l-5 5-7 8h-2l-1 3h-3l-1 2-5 2-3-3v-12l2-7v-4l-11 10-6 2-2-3 3-3h2l2-4 10-7 3-5v-10l3-9 3-8 4-9 3-9v-37l-1-2-1-7-5-8-5-1-7 4-2 2h-3l-1 3h-2l-2 4-11 12-9 11-8 9h-2v2h-2l-1 3-9 6-5 2h-52v-2l-5 1v-2l-4-1-8-4v-2l-4-2v-2h-2v-2h-2l-6-7-2-1v-2l-4-2-3-4v-2h-2l-5-6-3-3-4-7-5-5v-3h-2l-10-15-2-1v-2h-2v-2h-2l-2-2-6-2h-9l-2 5v25l3 17 3 12 1 8 2 7 1 23 2 7 2 5 4 2 6 7 5 5 2 5-3 3-4-4-1-3-4-2-1 6h2l1 4-1 2 2 1 4 18 4 13-1 4-8-1-2-1v-2l-5-2v-2l-4-1v-2l-4-2-4-6v-2l-2-1 4-2 3 2 3 5 9 8h2l-3-15-1-4-1-8v-5l-2-1-1-7-5-10-6-9-5-5v-2l-4-1-10-5-6-2-5-5-1-3-4-2-6-7-4-2-9-9-5-4-6-3-8 1-10 4h-3v2l-17 5-6 2-6 7-2 2-2 1-1 9-3 9-2 25-3 7h-2l-2 5-8 13-5 12v15l1 3-1 2 2 1 2 5-1 3 3 1 1 5 1 3-1 2h2l2 7-1 2 2 1v4h2l2 11h2v-8l2-10 3-1-3 14-1 7h-2l-2 4h-4v4h-2l-1-22-3-7 1-4-3-5-3-7-3-8-1-1-1-9v-15l4-10 8-13 5-8 2-6 2-19v-4l5-15 8-11 1-3 5-2 8-4 11-3 10-4 3-1 1-2 4-1h7l6 2v2l5 2 5 3v3l4 2 16 14 7 7 16 8 9 4v-12l-2-17-5-19-4-13v-29l3-6z" fill="#814A79"/>
<path transform="translate(932,851)" d="m0 0h15l15 2 18 5 13 5 14 8 3 2v2l5 2 11 9 6 7 4 18 2 18v62l-2 15-2 13-4 15-5 14-5 8v2l6-9 5-10 4-11 2-12 2-4 1-11 2-9 2-29v-49l1-1h5l6 7 4 7 3 2h10l9-11 7-11 3-4h2l2-4 14-14 12-9 11-7 16-8 11-4 14-4 11-1h28l15 2 12 3 9 3 8 5 10 5 5 3 4 4 8 6 13 13v3h2l10 15 6 11 5 13 4 16 2 16v35l-2 16-2 14-2 12-6 16-4 13-7 14-7 12-10 15h-2l-2 4-7 9-9 10-11 12-5 5h-2v2h-2v2l-11 9-6 7-5 5-7 5-8 8h-2l-1 3-8 6-10 9-9 7-15 14-9 7h-2l-2 4-6 5-4 4h-2v2l-11 9-14 13h-2l-2 4-8 7h-2l-1 3-8 7-9 8-8 7-4 4h-5l-14-13-8-7-10-9v-2l-4-2-11-10-8-7-10-8-5-5-15-14-8-7-9-8-10-8-3-2v-2l-4-2-6-4-5-5v-2h-3l-4-4v-2l-3-1v-2h-2v-2l-4-2-8-7-11-9-7-8-5-5-8-7-7-8-9-8-11-14-7-10v-2l-3-1-5-9-5-7-5-11-5-10-3-9-5-16-2-12-1-3-2-21-1-6v-43l4-17 6-16 9-20 9-11 3-5 16-14 12-9 20-10 22-6zm-11 3-16 3-7 2-8 3-7 3-15 8-8 6-10 9-2 1v2l-4 2-2 4h-2l-5 7v2h-2l-5 8-8 17-3 8-4 16-2 9v36l2 23 3 17 2 8 3 11 3 8 6 15 5 8 3 7h2l1 4 10 14 3 5 2 2 2 1 2 4h2l2 4 7 7v2h2l2 4 5 5h2v2l8 7 2 3h2v2h2l1 2 5 5h2v2h2l2 4 5 3 3 4h2l1 2 6 5 7 7h2l1 3 6 4 5 5 7 6h2l2 4 5 3 2 3 4 2 1 2h2l2 4 11 9 6 5 3 3 6 5 1 2h2l1 2 5 5h2l1 3 7 6h3v2l11 11h3l1 3h2v2h2l2 4 11 9 7 7h2l2 4 4 1 6-5 3-3v-2h2l5-5 7-6 10-9 4-5 5-3 2-4h2l4-4v-2l5-2 8-7 3-3v-2l5-2 10-9 8-6 5-5 13-12 8-6 12-11v-2l4-1v-2l4-2 8-7v-2h2l4-5 6-4 6-5 1-2 7-6 6-6v-2h2v-2l3-1 5-4 3-4 15-15 4-6v-2l4-2 4-5v-3l3-1 4-7 4-5 4-6v-4h2l6-13 2-5 3-7 5-15 1-7 1-4 2-7v-7l1-4 2-11v-46l-2-11-1-2v-5l-4-10-3-10-3-4-2-5h-2l-1-6-5-6-2-4h-2l-2-4-2-2-6-7-3-3h-3l-2-4-3-1-3-3-6-4h-2v-2l-5-1-1-2-8-4-11-4-16-4-10-2h-29l-11 2-20 5v2l-7 1-10 6-7 4-6 4-11 8-17 17-3 5-2 1-3 5v2h-2l-4 7-7 8-3 1h-7l-5-2-8-11-2-3-3 1v43l-1 26-2 13v8l5 5h3l1 3 3 1 3 3 6 5h3l1 3 10 6h3l1 2 5 2 4 2 10 3h14l7-3 8-5v-2h2l2-3h2l-1 4-4 2-5 5-6 3-7 2h-11l-8-2-2 1v-2l-10-4h-3l-1-2-11-7-4-1-1-3h-3l-2-4-4-1-1-2-7-6-4-2-6 24-6 13-3 6v2h-2l-6 8-8 6-9 3-1 2-2-1h-12l-12-5-4-2-4-1v-2l-4-1v-2h-2l-2-4-2-3h-2l-2-4-4-6h-2v-3h-2l-1-5-5-10-4-10-2-7-3-13-1-18h1l1-9 3-8 7-8v-2l6-1 5-2h9l9 3 9 4 13 9 4 1 1 3 8 5 8 8h2v2l8 6 5 4 2 3h2l1 3 2-2 1-3v-54l-2-16v-8l-1-5-1-11-2-5-5-7-11-7-1-2-3-1-1-2-7-3-2-2-6-3h-2v-2l-10-2-1-2-11-3-9-3-8-1zm33 95-6 2-5 2-4 5-2 1v3h-2l-2 7-2 6v16l3 15 3 11 3 7 5 10 8 12 2 1 3 6 3 1 4 5 4 2 3 3 8 4 6 1h16l9-5 7-9v-2l2-1 5-9 1-4 4-12 2-15 1-4v-7l-4-1-1-3-3-3h-2l-1-3h-2l-2-3h-2l-1-3-5-2-1-3-4-1-2-4h-3l-2-4-4-2-5-5-11-7-12-6-4-1-2-1z" fill="#743682"/>
<path transform="translate(931,1085)" d="m0 0h19l6 1-1 2-3 1-1 35 2 1 1-3 7-6 5-6 1-3h2l1-3 8-7 3-5 3-3-5-2v-1l5-1h10l1 2-6 1-4 5-5 5-6 7h-2v2h-2l2 9 2 2v4h2l3 9 5 8 5 10v3h2l2 5 6 10v1h-28l-3-10-5-9-5-10-1-3-2-2-2-5h-2v35l2 4-3 1h-23l1-3v-75l-1-5z" fill="#753681"/>
<path transform="translate(1186,944)" d="m0 0h6l4 2 3 6v18l-1 6 5 1 6-1 2 1v-2l9-1-2 4-7 3-2-1-1 2h-7l-4 2-2 9h-2l1 4-3 9-2 3-1 6h-2l-1 5-1 3h-2v3h-2v2h-2l-1 3-7 1-3-1-3-3v-2h-2l-6-15-2-10-1-9-4 2-3 9-4 6-2 5-8 8-8 1-6-4v-3l-2-1-2-5-2-22-2 5h-2l-1 6-4 6h-3v2l-3 1h-7l-5-4-3-7-1-6v-16h1v-7l3-7 1-1h8l1 3v10l-2 13v11l2 5 6-2 8-16 2-3 1-5 3-10 3-8 2-4h8l3 4-1 8-1 2-3 17-1 9v18l2 5h6l1-4 2-1 6-12h2l-1-3h2l1-6 3-5 2-9 1-11 4-5 6 1 3 3 1 4v28l1 1 2 19 3 7 1 2h4v-2h2v-3h2l1-7 4-8 2-7 2-9 2-1-1-3 1-6-4-5-3-3-4-7v-12l2-5z" fill="#743682"/>
<path transform="translate(1122,1085)" d="m0 0h35l1 1 1 24-2 4-3-8-1-2 1-2h-2l-5-9-2-4-10-1v77l-1 2 2 1-3 1h-26l3-2h2v-79h-8l-4 4h-2l-2 5-5 12h-2l1 3h-2l-1 2-1-10h2l-1-12 1-6z" fill="#743682"/>
<path transform="translate(1238,759)" d="m0 0h7l12 3 12 6 11 7 11 8 11 11 6 12 2 13 4 11 2 2v14l-4 7-7 8-15 8-1 3 1 4 6 7-4-1v-2l-4-2-2-4 1-5 4-2 2-5 5-2 5-4 5-6h2l1-4 1-1v-9l-2-4-4-7-3-13-2-10-4-7-7-7-4-2v-2h-3v-2l-4-1v-2l-7-2-1-3-6-2-6-3-1-2-6-1-5-1v-2h-15v2l-5 1-6 4-14 16h-2l3 9-4 1-2-1v-2l-5 5-7 8h-2l-1 3h-3l-1 2-5 2-3-3v-12l2-7v-4l-11 10-6 2-2-3 3-3h2l2-4 10-7 2-4 4-2 3-7h4v-2l29-5z" fill="#773B82"/>
<path transform="translate(1013,1085)" d="m0 0h27v2l-6 1-1 8v54l3 9 5 5v2h12l7-2 7-6 2-5 1-5v-60l-4-2h13l-6 3v63h-2v5l-8 9h-2l-1 2-6 2-4 1h-9l-16-3-5-3-5-5-5-10 1-6-2-1v-54l-5-2v-1z" fill="#732CA7"/>
<path transform="translate(1295,817)" d="m0 0 2 1 1 4-6 15-8 17-4 8v5l8-1 2-2 1 3-4 3-2 4-10-6-6-5-4-1v-2l-6-2-11-5-9-3-10-2-5-2-15-2h-17l-18 2-24 7-16 7-11 7-11 8-8 7h-2l-2 4-5 5-6 5-8 10-9 13-4 3-5-2-6-8-1-3-3-2-3-5-9-10-5-5-11-10v-2l-5-2-5-4-14-9-14-6-8-2v-2l-12-2-4-2-27-2-13 1-19 3-13 4-12 5-14 8-11 6-8 4-5 5-1-2 1-2h2v-9l3-12 2-6 3-7 4-5 3 1v4h-2l-1 5-3 7-4 15 6-2 5-3 2-2 6-3 3-3h4l1-2 5-2 2-1 2 1 1-2 2-1 3 1 1-2 9-3 10-2 3-1 8-1 9-1h13l11 1 3 1 7 1 5 1 8 3 6 1 14 6 8 4v2l7 2 2 2 7 4 4 4 4 2v2h2v2l4 2 3 3v2l4 2 5 6 2 1 1 3 5 5 1 3 4 4v3l3 1 3 5 4-1 4-7 2-1 1-4 7-8 3-5 8-7 2-3h2l2-4 4-1v-2l8-6 12-8h2l1-2 8-4h3l1-2 9-3h3l1-2 11-3 12-3 7-1 9-1h9l15 1 2 1 8 1 5 1 8 3 6 1v2l3-1 10 5 6 2 6 4 5-1 2-6h2l1-5 1-9 4-4h2l1-5 5-10h2z" fill="#743682"/>
<path transform="translate(435,892)" d="m0 0 9 2 9 7 14 17 9 11 16 15 9 6 4 1h16l10-1h13l8-6 9-9 10-14 9-10 9-6 2-1h7l4 5 3 8 2 11v24l-7 21-2 15-6 7-8 7-4-2 6-7 5-4 2-4 2-15 6-17 1-5v-12l-2-16-3-11-6 1-8 6-7 7-14 19-9 9-9 5h-20l-7 1h-11l-11-4-20-18-5-5-8-9-8-10-9-10-5-3h-9v20l4 15 4 11 2 11 1 15 3 8 14 13 1 4-4 1-6-7-8-7-5-8-2-21-5-17-4-14-1-6v-15l3-6z" fill="#743883"/>
<path transform="translate(1023,1185)" d="m0 0 4 1 2 1v2l4 1 7 4v2l6 2 10 7-2 8h2l1-2h2l2-4 3-1 4 6v3l5-3h3l4 9v2l3 1 1 5-2 3 1 4 12 7 15 10h3l1-3h2l2-4 3 1-1 6h-2l-2 5-2 4-3 1-5-2v-2l-4-2-5-2v-2l-4-1-11-7v-2l-5-2-1-7-2-5 1-6-4-1-3-3-3 1 3 3v2l3 1 3 6-1 7-4 2-4-2-5 1-1 3-2-4-3-1v-2l-2-1 1-5 6-7 2-2v-2l-4 1-1 4-1 1h-7l-1-6h-6v-2l-7-2-15-10v-2l-4-1-1-6 2-4h2v-3h2v-2z" fill="#743883"/>
<path transform="translate(637,974)" d="m0 0 17 1 17 3 13 5 7 6 7 11 11 10 2 5v7l-4 10-6 9-9 10h-5l-3-4v-22l-3-1 1-3 2-1 1-17h4l1 11-1 32 5-5 7-9 4-9v-8l-6-7-5-5-4-5-5-8-10-5-13-3-13-2h-15l-10 4-6 4-4 13-3 10 4 2-1 3-5 1-4 12-3 5v3l-7-1-3-6-1-5-1-23 5-5 27-18 9-4z" fill="#743883"/>
<path transform="translate(382,953)" d="m0 0h10l7 4 8 7 9 7 6 5v2l9 3 12 6 8 9 6 12 4 13 4 14 3 8-1 5-6-1-10-6-7-8-1-3 4-1 9 9 5 3-6-20-4-13-5-10-8-8-18-8-8-8-20-15-7-1-17 8-12 4-7 8-3 8-1 6-1 18-3 10-8 14-3 9v7l4 13 6 14 3 9 2 10 4-21 5-10 4-1-1 6-3 9-3 16-5 10-2 2h-5l-1-4v-13l-7-21-5-12-1-3v-14l4-11 8-14 1-4 1-17 3-14 7-11 7-5 15-5z" fill="#743883"/>
<path transform="translate(1184,1085)" d="m0 0h4v2l-6 3-2 5-1 1v6l5 5 6 4h2v2l4-1 5 2 7 2v2l5 1 3 1 6 6 5 8v15l-5 10-4 4-4 3-5 1-1 2-4 1 1-3 6-3h2l1-4v-7-2l-2-4-5-4-8-3-10-3-10-4v-2h-3v-2h-2v-2l-3-1v-4l-2-1-1-4 1-17 2-5 5-5z" fill="#732CA7"/>
<path transform="translate(896,700)" d="m0 0h7l6 2v2l5 2 5 3v3l4 2 16 14 7 7 16 8 9 4v-12l-2-17-1-7 1 2h2l2 11v25l-12-1-8-5-9-3-5-5-1-3-4-2-6-7-4-2-9-9-5-4-6-3-8 1-10 4h-3v2l-17 5-6 2-6 7-2 2-2 1-1 9-3 9-2 25-3 7h-2l-2 5-8 13-5 12v15l1 3-1 2 2 1 2 5-1 3 3 1 1 5 1 3-1 2h2l2 7-1 2 2 1v4h2l2 11h2v-8l2-10 3-1-3 14-1 7h-2l-2 4h-4v4h-2l-1-22-3-7 1-4-3-5-3-7-3-8-1-1-1-9v-15l4-10 8-13 5-8 2-6 2-19v-4l5-15 8-11 1-3 5-2 8-4 11-3 10-4 3-1 1-2z" fill="#895673"/>
<path transform="translate(931,1088)" d="m0 0h18v79h-12l-6-1z" fill="#732CA8"/>
<path transform="translate(429,1090)" d="m0 0h15l4 2 1 20v38l-1 6-12 2h-7l-1-48v-18z" fill="#74458D"/>
<path transform="translate(530,1091)" d="m0 0h18v46l-4 9-6 7-6 3-10 1-2-5v-9l5-4 3-6 1-41z" fill="#74458D"/>
<path transform="translate(490,1090)" d="m0 0 15 1 1 7v24l3 12 3 6 4 4v12l-1 1h-9l-10-5-6-7-2-10-1-20v-22z" fill="#74458D"/>
<path transform="translate(569,1089)" d="m0 0h6l3 3 12 36 6 20 1 7-2 1h-13l-10-22-13-39 1-5z" fill="#74448C"/>
<path transform="translate(1115,1088)" d="m0 0h16l1 22-1 30-1 24-12 1-3-3v-67l-1-4z" fill="#732CA8"/>
<path transform="translate(964,654)" d="m0 0h1v33h2l2 9 2 7 3 13 1 9 1 2 1 23 2 7 2 5 4 2 6 7 5 5 2 5-3 3-4-4-1-3-4-2-1 6h2l1 4-1 2 2 1 4 18 4 13-1 4-8-1-2-1v-2l-5-2v-2l-4-1v-2l-4-2-4-6v-2l-2-1 4-2 3 2 3 5 9 8h2l-3-15-1-4-1-8v-5l-2-1-1-7-5-10-6-9-5-5 1-3 7 1v-24l-1-11h-2l-4-15-4-16v-24z" fill="#743782"/>
<path transform="translate(1178,672)" d="m0 0h7l7 7v3h3l1 17 1 7v18l-3 15-6 13-4 16 4 1-4 1-3 7h-3v-10l3-9 3-8 4-9 3-9v-37l-1-2-1-7-5-8-5-1-7 4-2 2h-3l-1 3h-2l-2 4-11 12-9 11-8 9h-2v2h-2l-1 3-9 6-5 2h-28l-4-2 3-1h30l2-4 6-2 4-5 8-7 6-10 6-7 3-6 8-6 5-5 6-4z" fill="#7B417E"/>
<path transform="translate(1186,944)" d="m0 0h6l4 2 3 6v18l-1 6 5 1 6-1 2 1v-2l9-1-2 4-7 3-2-1-1 2h-7l-4 2-2 9h-2l1 4-3 9-2 3-1 6h-2l-1 5-1 3h-2v3h-2v2h-2l-1 3-7 1-3-1-3-3v-2h-2l-6-15-2-10-1-9 3-1 2 12 4 15 5 9 5 2 1-3h4v-2h2v-3h2l1-7 4-8 2-7 2-9 2-1-1-3 1-6-4-5-3-3-4-7v-12l2-5z" fill="#743682"/>
<path transform="translate(1023,1185)" d="m0 0 4 1 2 1v2l4 1 7 4v2l6 2 10 7-2 8h2l1-2h2l2-4 3-1 2 3-5 2-3 4-1 8-2 2h-7l-1-6h-6v-2l-7-2-15-10v-2l-4-1-1-6 2-4h2v-3h2v-2z" fill="#BA9A4A"/>
<path transform="translate(606,1088)" d="m0 0h9l5 1 1 3-11 30-7 23-4-2-3-8-4-10v-8l9-26 1-2z" fill="#74458D"/>
<path transform="translate(1013,1085)" d="m0 0h27v2l-6 1-1 8v54l3 9 5 5v2h12l7-2 7-6 2-5 1-5v-60l-4-2h13l-6 3v63h-2v5l-8 9h-2l-1 2-6 2-4 1h-9l-16-3-5-3-5-5-5-10 1-6-2-1v-54l-5-2v-1zm2 2-2 1v19l1 13h-1v11h1v10l-1 3 2 9 2 5 5 4 7 4 8 1-1-4-3-1-1-6-2-6v-62z" fill="#743682"/>
<path transform="translate(966,1114)" d="m0 0h2l2 5 2 1 3 8 2 3v3h2l3 7 4 7 4 9 4 8h-18l-4-5-5-9-9-18-1-9 7-6z" fill="#732CA8"/>
<path transform="translate(1238,759)" d="m0 0h7l12 3 12 6 11 7 11 8 11 11 6 12 2 13 4 11 2 2v14l-4 7-7 8-15 8-1 3 1 4 6 7-4-1v-2l-4-2-2-4 1-5 4-2 2-5 5-2 5-4 5-6h2l1-4 1-1v-9l-2-4-4-7-3-13-2-10-4-7-7-7-4-2v-2h-3v-2l-4-1v-2l-7-2-1-3-6-2-6-3-1-2-6-1-5-1v-3l-19-1v-1z" fill="#865176"/>
<path transform="translate(1184,1085)" d="m0 0h4v2l-6 3-2 5-1 1v6l5 5 6 4h2v2l4-1 5 2 7 2v2l5 1 3 1 6 6 5 8v15l-5 10-4 4-4 3-5 1-1 2-4 1 1-3 6-3h2l1-4v-7-2l-2-4-5-4-8-3-10-3-10-4v-2h-3v-2h-2v-2l-3-1v-4l-2-1-1-4 1-17 2-5 5-5zm-10 12-3 7-1 10 2 8 2 3h2l1 3 12 6 15 3 3-1 1 5h4l2 4 2 3 2 10 5-5 1-2v-18l-8-10-4-2-11-4-7-2-9-4-6-4-3-10z" fill="#743782"/>
<path transform="translate(1185,852)" d="m0 0h20v2l-21 1-11 2-12 3-15 5-10 6-7 4-6 4-9 7h-2l-1 3-8 7-6 7-3 3-2 3h-2l-1 4-2 3h-2l-1 4-8 10-5 3h-7l-5-2-5-6-4-6-1-3-2 1v43l-1 6h-1l-1-34v-18l1-1h5l6 7 4 7 3 2h10l9-11 7-11 3-4h2l2-4 14-14 12-9 11-7 16-8 11-4 14-4z" fill="#743883"/>
<path transform="translate(1209,767)" d="m0 0h5l-1 4-3 5-5 4-1 2h-2l-1 4-6 7h-2v2l-2 2-4 5h-2v2l-5 3v-8l5-14 2-5 2-7 9-3h7v-2z" fill="#E9C935"/>
<path transform="translate(931,1085)" d="m0 0h19l6 1-1 2-3 1-1 28h-1l-1-28-18-1 1 19v55l-1 4 18 1-1-38 2-1 1 36 2 4-3 1h-23l1-3v-75l-1-5z" fill="#743984"/>
<path transform="translate(1062,1209)" d="m0 0h4l2 3v3l5-3h3l1 6-1 3-5 1-3-3-3 1 3 3v2l3 1 3 6-1 7-4 2-4-2-5 1-1 3-2-4-3-1v-2l-2-1 1-5 6-7 2-2v-2l-4-1 1-5z" fill="#743684"/>
<path transform="translate(1157,964)" d="m0 0 6 2 1 8v23l2 16 3 10 1 3h2v3l-5-1-7-12-4-17-3-15 3-19z" fill="#732CA8"/>
<path transform="translate(1023,1185)" d="m0 0 2 4-3 3-1 4 4 2 13 8v2l5 2 2 2 6 1 6 5v5l-2 2h-7l-1-6h-6v-2l-7-2-15-10v-2l-4-1-1-6 2-4h2v-3h2v-2z" fill="#753983"/>
<path transform="translate(1123,956)" d="m0 0 4 1v9l-2 7-3 30 1 8 3 9h-4l-4-6-2-6-1-18-1-9 5-17 2-6z" fill="#732CA8"/>
<path transform="translate(1083,1225)" d="m0 0 10 3 11 8 10 6 5 4-3 4h-2l-1 4-5-1-10-7-10-6-7-5 1-4z" fill="#BA9A4A"/>
<path transform="translate(900,701)" d="m0 0h8l1 3 5 2 5 3v3l4 2 16 14 7 7 16 8 9 4v-12l-2-17-1-7 1 2h2l2 11v25l-12-1-8-5-9-3-5-5-1-3-4-2-6-7-4-2-9-9-5-4-6-3-8 1-10 4h-3v2l-4 1 2-4h4v-2z" fill="#865275"/>
<path transform="translate(458,1141)" d="m0 0h21v15l-1 1h-23l-1-2v-11l1-2z" fill="#74458D"/>
<path transform="translate(1165,681)" d="m0 0 3 1-2 4h-2l-2 4-11 12-9 11-8 9h-2v2h-2l-1 3-9 6-5 2h-28l-4-2 3-1h30l2-4 6-2 4-5 8-7 3-5 5-5 12-13h2l2-4z" fill="#753982"/>
<path transform="translate(1057,1218)" d="m0 0 4 1 1 3-9 9-1 5-5-1-5 5-4 5-8-1-9-4v-2l4-1 1 1 3-5 4-4 5 1 6 1 8-3-4-2 2-2h5z" fill="#B7964D"/>
<path transform="translate(609,993)" d="m0 0h2l-2 9-9 27-3 1-1-3-1-25z" fill="#EDCD33"/>
<path transform="translate(1054,1238)" d="m0 0 4 1 2 5h-2v11l-6 6h-5l-5-4-2-3v-5l3-5 6-2 6 1z" fill="#B39150"/>
<path transform="translate(1330,945)" d="m0 0 2 2 2 16v46l-2 20-2 9-2 10-3 11-2 6h-1v-12l2-5 2-12 2-9 1-8 1-1 1-10v-45z" fill="#9E7865"/>
<path transform="translate(1167,1143)" d="m0 0 2 4 3 1v2l13 13 7 4 2 2-5 1-12-2-3-1-6 1-1-8z" fill="#743682"/>
<path transform="translate(820,802)" d="m0 0h1v18l1 9 2 2 2 6 4 10v2h3l2 7-1 2 2 1v4h2l2 11h2v-8l2-10 3-1-3 14-1 7h-2l-2 4h-4v4h-2l-1-22-3-7 1-4-3-5-3-7-3-8-1-1-1-9v-15z" fill="#A47F5F"/>
<path transform="translate(969,646)" d="m0 0h7l10 4 1 2-7-2 3 3-1 2-4-2h-9l-2 5v25l2 13-2-2v-7h-2l-1-13v-19l-2 3v24l6 23v6h-1l-4-17-3-8v-29l3-6z" fill="#A88259"/>
<path transform="translate(1104,1087)" d="m0 0 8 1v79 1h22l1-6 1 3h7l2 1-1 4h-44v-3l2-2 9 1-1-76h-6l-8 9-1-2 3-5z" fill="#BB9B4A"/>
<path transform="translate(836,780)" d="m0 0 2 1-2 5-7 11-5 12v15l1 3-1 2 2 1 2 5-1 3 3 1 1 5 1 3-2 2-5-12-3-7-1-1-1-9v-13l2-9 7-12z" fill="#804C7D"/>
<path transform="translate(517,1048)" d="m0 0h7l5 4 1 5-3 6-3 2h-6l-6-5v-7z" fill="#743783"/>
<path transform="translate(1189,947)" d="m0 0 3 1v2h2l2 9-1 13-3 2-5-5-4-8 1-6 2-6z" fill="#F5D530"/>
<path transform="translate(1088,962)" d="m0 0 4 1 1 1-1 11-1 7v13l2 9-5-1-3-8v-22l1-9z" fill="#732CA8"/>
<path transform="translate(1045,913)" d="m0 0h5l6 7 4 7 3 2h10l8-9 1 3-8 9-3 1h-7l-5-2-5-6-4-6-1-3-2 1v43l-1 6h-1l-1-34v-18z" fill="#743A85"/>
<path transform="translate(1188,768)" d="m0 0h7l-4 2-3 2-4 13-3 2-4-2-2 4-9 8-6 2-2-3 3-3h2l2-4 10-7 2-4 4-2 3-7z" fill="#743782"/>
<path transform="translate(1143,1085)" d="m0 0h14l1 1 1 24-2 4-3-8-1-2 1-2h-2l-5-9-2-4-5-1v-2z" fill="#743783"/>
<path transform="translate(1100,1194)" d="m0 0 4 1-6 5-3 5 6-2 7-2-3 3h-2v2l-4 1-1 3-4 2-8 6-7-4 1-5 3-1 2-2 5-4h2v-2l7-4z" fill="#753983"/>
<path transform="translate(1192,1084)" d="m0 0h8l11 2 10 1 1 19v2h-3l-1-4-3-2v-3l-3-1-2-5-4-2-3-3-5-1v-2h-6z" fill="#743883"/>
<path transform="translate(1178,672)" d="m0 0h7l7 7v3h-5l-3-4-5-1-7 4-2 2-5-1-7 9-8 7-7 8h-3l7-7 4-8 8-6 5-5 6-4z" fill="#7F4B7C"/>
<path transform="translate(1139,707)" d="m0 0 1 2-3 5-14 14-6 2-1 2-3 1h-44l-9-2v-1l54-1 12-8 9-10h2z" fill="#916672"/>
<path transform="translate(968,711)" d="m0 0 1 2h2l2 11v25l-12-1-8-5-9-3-4-4 2-2-11-11h3l12 12 16 8 9 4v-12l-2-17z" fill="#906772"/>
<path transform="translate(1130,733)" d="m0 0 2 1 1 10 2 9 4 1 6 4 2 2 1 7-3 5h-3l2-10-5-2-6-4-4-6-1-15z" fill="#976966"/>
<path transform="translate(1303,891)" d="m0 0 5 4 10 15 7 15 5 15-1 10-2-1-3-12-2-6-1-12-3-1-6-10-2-6-5-4z" fill="#885473"/>
<path transform="translate(947,759)" d="m0 0 5 2 2 4h2l5 8v5l3 2 2 4v5l-4 3-4-1 1-4 2-2-1-3-5-3v-6l-1-5-4-2-3-4z" fill="#AC8856"/>
<path transform="translate(1165,681)" d="m0 0 3 1-2 4h-2l-2 4-11 12-9 11-4 2-7 7-4 3-2-1 13-12 2-5 8-7 7-8 3-1 2-4z" fill="#743C88"/>
<path transform="translate(964,654)" d="m0 0h1v33h2l1 13 2 7v6l-2-2-5-22-2-7v-24z" fill="#74418A"/>
<path transform="translate(812,1007)" d="m0 0h1l1 16 3 17 2 8 3 11 3 8 5 12-1 2-4-4-4-13-3-7-3-10-2-12-1-3z" fill="#743984"/>
<path transform="translate(951,1128)" d="m0 0 3 1 2 5h-3v-3h-2l1 7v27l4 1 2 1v3h-37l-1-3 8-2v3h22l2-1-2-3v-35z" fill="#B7954D"/>
<path transform="translate(1026,735)" d="m0 0h3l-2 6-4 6-5 4h-2l-2 5-2 3v4l-6 1-1-4 6-8 5-6h2v-2l5-5z" fill="#A7805A"/>
<path transform="translate(846,740)" d="m0 0h1l-1 7-2 25-3 7h-2v2l-4 1-5 4 2-4 4-7 2-6 2-18h1v19h2l-1-3 2-23z" fill="#81527D"/>
<path transform="translate(1313,845)" d="m0 0h1l-1 7-8 9-15 8-1 3 1 4 6 7-4-1v-2l-4-2-2-4 1-5 4-2 2-5 5-2 5-4 5-6h2v-3z" fill="#885372"/>
<path transform="translate(921,1084)" d="m0 0h36v4l-7-2h-23l2 5-1 58h-1l-1-61-4-1z" fill="#BB9B4A"/>
<path transform="translate(1225,1188)" d="m0 0 3 1-8 6-7 8-9 7h-2l-1 3-7 5-1-2h2l2-4 18-18 7-5z" fill="#865276"/>
<path transform="translate(1089,1083)" d="m0 0 54 1v2h-55v18h-2v-14l2-6z" fill="#BB9B4A"/>
<path transform="translate(1033,1233)" d="m0 0 6 1 3 6-4 5-8-1-9-4v-2l4-1h3v3h2l2-6z" fill="#AE8B54"/>
<path transform="translate(1187,747)" d="m0 0h1l-1 9-3 12 4 1-4 1-3 7h-3v-10l3-9 3-8z" fill="#7F477A"/>
<path transform="translate(846,797)" d="m0 0h3l4 13 1 7 1 1v6l-7 2 1-9-3-14z" fill="#A37A5C"/>
<path transform="translate(1277,1137)" d="m0 0 2 1-1 2h-2l-2 4-16 17-7 7h-2l2-4 6-8 10-11 7-6h3z" fill="#865376"/>
<path transform="translate(1063,1225)" d="m0 0h4l4 7v5l-13-1-2-2v-3z" fill="#732CA8"/>
<path transform="translate(1165,969)" d="m0 0h1v28l1 1 2 19 3 9h-2l-3-6-3-12-1-11v-12z" fill="#743C86"/>
<path transform="translate(1073,1087)" d="m0 0 2 1-1 58-1 5h-1v-62z" fill="#BB9B4A"/>
<path transform="translate(1065,1218)" d="m0 0 4 1v2l6 2v7l2 4 1 7 4 2v2l-5-2-1-3-4 2-7-1-3-2-1 3-2-2 2-2 7 1 2 1 3-3-1-7-2-4-2-1v-2l-4-2z" fill="#BD9D48"/>
<path transform="translate(1330,1018)" d="m0 0h1v9l-2 19-3 8-3 11h-1v-12l2-5 2-12 2-9 1-8z" fill="#743B86"/>
<path transform="translate(1184,1085)" d="m0 0h4v2l-6 3-2 5-1 1v7l-3-1v-5l-2 1-4 16-2-3 1-11 2-5 5-5z" fill="#743581"/>
<path transform="translate(1104,1087)" d="m0 0 8 1v79l-2-1v-76h-6l-8 9-1-2 3-5z" fill="#BE9E48"/>
<path transform="translate(1047,916)" d="m0 0h2l4 6h-3l-2-1v49l-1 14h-2l1-24v-43z" fill="#BB9B4A"/>
<path transform="translate(1127,966)" d="m0 0 2 2-3 17-1 9v22l-2-2-2-7 2-24 1-10z" fill="#743782"/>
<path transform="translate(1106,1201)" d="m0 0 2 1-5 2v2l-4 1-1 3-4 2-5 4h-2v-2l-4-1v-2l5-4 9-2 6-3z" fill="#743682"/>
<path transform="translate(809,962)" d="m0 0 2 2 1 36v17h-1l-2-12z" fill="#743581"/>
<path transform="translate(847,733)" d="m0 0 1 3-3 8-2 26h-2l-1-20v-4l3-9z" fill="#743782"/>
<path transform="translate(1329,945)" d="m0 0 2 4 1 14v45l-1 7h-1v-41l-2-24z" fill="#753581"/>
<path transform="translate(822,807)" d="m0 0 2 2v15l1 3-1 2 2 1 2 5-1 3 3 1 1 5 1 3-2 2-5-12-3-7-1-1v-21z" fill="#764186"/>
<path transform="translate(1040,1011)" d="m0 0 1 3-5 20-6 13-4 8h-2l-2 5-2 1 1-5 4-5 6-12 4-11 2-12z" fill="#743984"/>
<path transform="translate(1032,923)" d="m0 0h1l2 16v54l-2 5-2-1 2-8v-42l-1-11z" fill="#BB9B4A"/>
<path transform="translate(823,920)" d="m0 0h2l-1 4-5 13-2 6-4 17-1 4h-2l1-9 4-16z" fill="#743984"/>
<path transform="translate(998,1165)" d="m0 0 6 2v3h-37v-3l4-1v2l26-1z" fill="#BA9A4A"/>
<path transform="translate(1188,768)" d="m0 0h7l-4 2-3 2-4 13-3 2-2-2 1-8 4-8z" fill="#732CA7"/>
<path transform="translate(853,881)" d="m0 0m-1 1m-1 1m-1 1m-1 1m-1 1m-1 1m-1 1m-1 1m-1 1m-1 1 2 3-3 1v2h-2l-2 4-3 5h-2l-7 14h-2l3-9 10-13 3-5z" fill="#743682"/>
<path transform="translate(1045,1247)" d="m0 0h9v7l-2 2h-7l-2-3 1-4z" fill="#F8D82F"/>
<path transform="translate(1303,891)" d="m0 0 5 4 10 15 5 10-1 3-1-4-3-1-6-10-2-6-5-4z" fill="#93666D"/>
<path transform="translate(1192,682)" d="m0 0h3l1 17 1 7v18l-2 9h-1v-30l-1-16z" fill="#BB9B4A"/>
<path transform="translate(1130,733)" d="m0 0 2 1 1 10 2 8-2 1 5 5-4-1-3-3-2-4-1-15z" fill="#BB9B4A"/>
<path transform="translate(1033,1229)" d="m0 0 5 1 7 3-4 6-2-2v-3h-6l-3 7-3-1v-5z" fill="#A47C5C"/>
<path transform="translate(1166,679)" d="m0 0 2 1-6 5-4 6-8 7-7 8h-3l7-7 4-8 8-6 5-5z" fill="#B4934F"/>
<path transform="translate(896,700)" d="m0 0h7l-3 2-13 5h-2v2l-5 2-1 2h-13l1-2 11-3 10-4 3-1 1-2z" fill="#966C6A"/>
<path transform="translate(809,926)" d="m0 0h1v7l-2 5-6 18-1 6h-2l-1-11 2 3 4-15 4-10z" fill="#8B5B73"/>
<path transform="translate(1140,712)" d="m0 0v3l-6 7h-2v2h-2l-1 3-9 6-4-3 2-2 6-2 10-8z" fill="#743984"/>
<path transform="translate(1187,1083)" d="m0 0h18l2 2-4 1-5-1v2l-13 3-3 2v-3l3-2h3l-3-1v-2z" fill="#B9984B"/>
<path transform="translate(1208,784)" d="m0 0v3 3l1 7h-9l-12 13-4 1v-2l3-1 5-5 8-10h2v2l5-1-2-4v-4z" fill="#BB9B4A"/>
<path transform="translate(958,775)" d="m0 0 3 1 1 3 2 1 2 4v5l-4 3-4-1 1-4 2-2-3-6z" fill="#A2785E"/>
<path transform="translate(1139,707)" d="m0 0 1 2-3 5-14 14-7 1 4-4 8-6 7-8h2z" fill="#BB9B4A"/>
<path transform="translate(1167,1141)" d="m0 0 4 4v2h-2l-1-2v15l1 5-1 3 3-2h5l1 2-6 2-4 1-1-2v-27z" fill="#BB9B4A"/>
<path transform="translate(1016,749)" d="m0 0 2 2h-2l-2 5-2 3v4l-6 1-1-4 6-8 4-2z" fill="#A37A5D"/>
<path transform="translate(1051,1214)" d="m0 0 3 1 3 3v5l-2 2h-7l1-10z" fill="#743682"/>
<path transform="translate(927,1165)" d="m0 0 3 3h23l3 1v-2h2v3h-37l-1-3z" fill="#BB9B4A"/>
<path transform="translate(931,722)" d="m0 0 4 2 11 11 6 3-3 1-1 3-7-4v-3-2l-10-10z" fill="#A77F5A"/>
<path transform="translate(1170,1154)" d="m0 0 4 1 4 5 4 4v1l-9-1-2-2z" fill="#732CA8"/>
<path transform="translate(426,996)" d="m0 0 4 2 6 7 5 9-1 6-4-1v-2h3l-2-6-4-1-1-6z" fill="#743C86"/>
<path transform="translate(1201,765)" d="m0 0h4v4 1l-16 3 2-4-3-2z" fill="#83507A"/>
<path transform="translate(1073,1210)" d="m0 0h6l1 4 7 4v1h-5l-2-1 2 5h-2l-4-9v-2l-6 3h-2v-3z" fill="#B8984C"/>
<path transform="translate(1193,1167)" d="m0 0h11l1 4-2 1h-13l-2-2 5-1z" fill="#B9994B"/>
<path transform="translate(799 1e3)" d="m0 0 3 1 3 23 1 2-1 7h-1l-3-16v-9h-2z" fill="#946B6C"/>
<path transform="translate(1165,681)" d="m0 0 3 1-2 4h-2l-2 4-8 9-1-2-2-1 5-5h2l2-4z" fill="#74418A"/>
<path transform="translate(962,683)" d="m0 0h2l1 4h2l1 13 2 7v6l-2-2-5-22z" fill="#74448C"/>
<path transform="translate(1178,672)" d="m0 0h7l7 7v3h-5l-3-4-4-2h2v-2z" fill="#9B6E64"/>
<path transform="translate(1114,1195)" d="m0 0 1 3-4 4h-2v2l-9 6-2-1 3-3h2v-2l1-1-2-2z" fill="#B7964D"/>
<path transform="translate(836,780)" d="m0 0 2 1-2 5-6 9-5 2 4-8v-3z" fill="#743B8B"/>
<path transform="translate(1329,1032)" d="m0 0h1l-1 14-3 8-3 11h-1v-12l3-6h2z" fill="#986E67"/>
<path transform="translate(557,954)" d="m0 0 2 1 1 9 2 4 7 4 1 2v7h-2l-1-7-8-5-4-12v-2z" fill="#743D87"/>
<path transform="translate(1116,883)" d="m0 0 2 1-21 21h-2v2l-2-1 5-5 9-10z" fill="#CEAE41"/>
<path transform="translate(1148,1088)" d="m0 0h8l1 9-2 3-7-10z" fill="#732CA8"/>
<path transform="translate(846,740)" d="m0 0h1l-1 7-2 25-3 7-1-3 2-9 2-23z" fill="#BB9B4A"/>
<path transform="translate(1094,973)" d="m0 0h1v28l6-3v3l-6 2-3-6v-11z" fill="#BB9B4A"/>
<path transform="translate(478,959)" d="m0 0h2l-2 6-5 5-4 5-1 3h2v2h-6l5-10 6-5z" fill="#743E88"/>
<path transform="translate(831,849)" d="m0 0h2l2 7-1 2 2 1 1 7 1 1v7h-2l-2-12-3-6z" fill="#743B86"/>
<path transform="translate(949,739)" d="m0 0 7 1 8 4v4l-4-1-10-5z" fill="#895773"/>
<path transform="translate(1e3 1271)" d="m0 0 4 1v2h3l5 5 5 4v2h2l1 4-4-2-15-14z" fill="#8A6077"/>
<path transform="translate(1064,1083)" d="m0 0 15 1 1 4h-5v-1h-6l-1 2-5-1v-4z" fill="#BB9B4A"/>
<path transform="translate(519,1052)" d="m0 0 5 1 1 6-2 2-5-1-1-6z" fill="#E3C338"/>
<path transform="translate(1112,986)" d="m0 0h1l2 24-2 1-3-16-3 4v-3z" fill="#BB9B4A"/>
<path transform="translate(915,853)" d="m0 0h7l-1 2-16 3-7 2-4 1v-2l11-4z" fill="#743984"/>
<path transform="translate(1219,772)" d="m0 0v3l-4 5 3 1-1 5-4 1-1-4-3 1 2-4z" fill="#BF9F48"/>
<path transform="translate(346,1030)" d="m0 0 2 1 2 8 3 8v4l-5 1 1-8-3-7z" fill="#743E87"/>
<path transform="translate(868,712)" d="m0 0h7l2 2-12 3-4 2-3-3 5-3z" fill="#7D477E"/>
<path transform="translate(845,855)" d="m0 0h2l-3 14-1 7-4 1-1-1-1-9-1-2 2-2 2 11h2v-8l2-10z" fill="#BB9B4A"/>
<path transform="translate(857,881)" d="m0 0 2 1-21 21-1 2-2-1 5-7h2v-2l2-2 4-2v-2l8-7z" fill="#CFAF41"/>
<path transform="translate(837,1114)" d="m0 0 4 2 4 5 1 3 2 1 3 5 1 4-5-4-10-15z" fill="#885A76"/>
<path transform="translate(1170,1095)" d="m0 0 2 2-2 3-1 17-2 1-1-2v-11z" fill="#BB9B4A"/>
<path transform="translate(927,972)" d="m0 0h2v5l-1 1 1 17h-2l-1-2v-19z" fill="#B8974C"/>
<path transform="translate(1033,1233)" d="m0 0 6 1-1 5-1 2-5-1-1-5z" fill="#F8D82F"/>
<path transform="translate(1188,1220)" d="m0 0 3 1-7 7-9 7-2-2 7-7 5-3h2z" fill="#885674"/>
<path transform="translate(1135,1162)" d="m0 0 1 3h7l2 1-1 4h-10v-3z" fill="#BB9B4A"/>
<path transform="translate(952,1087)" d="m0 0 2 2-1 2v34l-3-1 1-35z" fill="#BB9B4A"/>
<path transform="translate(984,1085)" d="m0 0h10l1 2-6 1-4 5-4 1v-2l3-3-5-2v-1z" fill="#743984"/>
<path transform="translate(1126,859)" d="m0 0 1 2-14 9-6 5h-2v2l-4 1 5-5 10-8z" fill="#BB9B4A"/>
<path transform="translate(1054,1253)" d="m0 0 3 1-2 5-3 2h-5v-4l6-3z" fill="#AB8658"/>
<path transform="translate(1065,1218)" d="m0 0 4 1v2l6 2v6l-5-3-2-1v-2l-4-2z" fill="#B8974C"/>
<path transform="translate(1047,916)" d="m0 0h2l4 6h-3l-2-1v13l-2-1v-16z" fill="#B9994B"/>
<path transform="translate(1312,1084)" d="m0 0h2l-2 6-9 17-1-4 6-12 1-3 2-1z" fill="#8A5C75"/>
<path transform="translate(1192,950)" d="m0 0h2l2 9-1 13-3 2-4-4h3v2h2v-16z" fill="#BB9B4A"/>
<path transform="translate(846,797)" d="m0 0h3l3 9-1 4h-3l-2-7z" fill="#B39150"/>
<path transform="translate(897,702)" d="m0 0 2 1-4 4-4 1-5 2h-3v2l-4 1 2-4h4v-2z" fill="#743D87"/>
<path transform="translate(1188,682)" d="m0 0h4l2 5v9l-4-2v-5z" fill="#743A85"/>
<path transform="translate(812,1007)" d="m0 0h1l1 16 2 11-4-2z" fill="#743E88"/>
<path transform="translate(976,647)" d="m0 0 5 1 6 3-2 1-5-2 3 3-1 2-4-2-9-1 2-2h5z" fill="#AA8458"/>
<path transform="translate(1224,1134)" d="m0 0 3 3v12l-1 2h-2z" fill="#743581"/>
<path transform="translate(1064,1159)" d="m0 0v3l-5 4-6 1h-9l-3-1v-2h16z" fill="#BB9B4A"/>
<path transform="translate(813,1033)" d="m0 0h2l3 10 1 5v7l-2-2-2-6z" fill="#743782"/>
<path transform="translate(1091,1206)" d="m0 0h2l-1 5-4 1v2l-5-1v-2l5-4z" fill="#732CA8"/>
<path transform="translate(905,1187)" d="m0 0 4 1 10 9 3 2-1 3-10-9-6-5z" fill="#8E6574"/>
<path transform="translate(1212,1090)" d="m0 0 6 1 1 2v7h-2l-6-9z" fill="#732CA8"/>
<path transform="translate(1094,964)" d="m0 0h1v9l-2 13-2-4v-7l2-5z" fill="#743B85"/>
<path transform="translate(1291,866)" d="m0 0 3 1-5 3v5l7 7-3 1-1-3-4-2-2-4 1-5z" fill="#A37E60"/>
<path transform="translate(1025,1168)" d="m0 0 16 2h6v-1h5v3h-15l-12-3z" fill="#BB9B4A"/>
<path transform="translate(957,769)" d="m0 0 4 4-1 3-2-1 1 6-4-2v-9z" fill="#B9984B"/>
<path transform="translate(1023,1237)" d="m0 0h4l1 3 4-1 1 5-9-2-3-2v-2z" fill="#B7964D"/>
<path transform="translate(1208,1085)" d="m0 0h14l1 9-2 4-1-10-9-1z" fill="#B7964D"/>
<path transform="translate(1123,995)" d="m0 0h1l1 21-2-2-2-7 1-7z" fill="#743E88"/>
<path transform="translate(1e3 972)" d="m0 0 5 3 10 9 4 4-5-2-5-4v-2l-4-2-5-4z" fill="#BB9B4A"/>
<path transform="translate(817,909)" d="m0 0 1 4-2 6-4 7h-2l3-9z" fill="#8A5B74"/>
<path transform="translate(900,701)" d="m0 0h8l1 5h-3l-7-1-2-1z" fill="#7F487B"/>
<path transform="translate(1045,1311)" d="m0 0 4 1 1 3 4 2 5 5v2l-4-2-10-10z" fill="#8C6375"/>
<path transform="translate(1102,1165)" d="m0 0 8 1v2l-4 2h-6v-3z" fill="#B5924E"/>
<path transform="translate(814,1071)" d="m0 0 3 3v2h2l3 8v3h-2l-6-13z" fill="#875777"/>
<path transform="translate(1186,949)" d="m0 0h2l-1 3v13l2 4-3-1-3-7 1-6z" fill="#B9984B"/>
<path transform="translate(813,947)" d="m0 0h2l-1 8-2 9h-2l1-9z" fill="#743B85"/>
<path transform="translate(1130,733)" d="m0 0 2 1v7l-1 5h-2l-1-11z" fill="#A67D5A"/>
<path transform="translate(1173,1219)" d="m0 0v3l-14 13-1-3 10-9z" fill="#B9984B"/>
<path transform="translate(1019,1197)" d="m0 0 3 2v2l5 2 5 5-6-2-8-6z" fill="#732CA8"/>
<path transform="translate(1237,1176)" d="m0 0 3 2-11 10-1-3z" fill="#8C5B72"/>
<path transform="translate(896,700)" d="m0 0h7l-3 2-13 5-3-1 6-3 2-2z" fill="#BB9B4A"/>
<path transform="translate(981,1094)" d="m0 0v3l-7 8h-2v2h-3l1-3 8-7zm-14 13 2 1-2 1z" fill="#743682"/>
<path transform="translate(976,1084)" d="m0 0h8l-1 3 2 2-2 3-2-1v-2l-5-2z" fill="#BB9B4A"/>
<path transform="translate(1184,944)" d="m0 0h2l-2 4-2 5v11l-2 1-1-11 3-8z" fill="#BB9B4A"/>
<path transform="translate(1123,1277)" d="m0 0 4 1-12 10-1-3 4-2v-2l5-2z" fill="#8B5B73"/>
<path transform="translate(1194,1201)" d="m0 0v3l-12 11-1-3 10-9z" fill="#B6954D"/>
<path transform="translate(849,862)" d="m0 0h1v5l7-4 3-1-1 3-7 4-4 1-1-2z" fill="#BB9B4A"/>
<path transform="translate(822,807)" d="m0 0 2 2v13l-2 2-1-1v-15z" fill="#743581"/>
<path transform="translate(1066,1223)" d="m0 0h2v2l3 1 3 7-4-1-3-5v-2l-5 1v-2z" fill="#743C86"/>
<path transform="translate(1210,1187)" d="m0 0v3l-9 8h-2v2l-4 1 1-2h2v-2l8-7z" fill="#BB9B4A"/>
<path transform="translate(927,1165)" d="m0 0 2 2-1 1 2 2h-9l-1-3z" fill="#B49350"/>
<path transform="translate(1329,945)" d="m0 0 2 4v14l-2-1-1-12z" fill="#743984"/>
<path transform="translate(1166,1239)" d="m0 0 3 1-9 9-3 1 2-4 4-2 1-4z" fill="#8C6074"/>
<path transform="translate(1071,1233)" d="m0 0h3l-1 6-4 2-3-1v-3h5z" fill="#743883"/>
<path transform="translate(946,1043)" d="m0 0 3 1 5 7v2h2l4 5-1 2-4-4v-2h-2l-7-9z" fill="#B8984C"/>
<path transform="translate(1201,981)" d="m0 0h7l-3 3h-7l-2 4-1-3 2-3z" fill="#BB9B4A"/>
<path transform="translate(1165,681)" d="m0 0 3 1-2 4h-2l-2 4h-2l1-5z" fill="#743E88"/>
<path transform="translate(1242,1157)" d="m0 0v3l-11 11-2-2z" fill="#BB9B4A"/>
<path transform="translate(1268,1130)" d="m0 0 3 1-14 14v-3l10-10z" fill="#B8984C"/>
<path transform="translate(1217,971)" d="m0 0 5 1-1 5-4 2 3-5-9 1 4-3z" fill="#B6954E"/>
<path transform="translate(1189,770)" d="m0 0m-1 1 1 3-2 10h-3l1-6z" fill="#743782"/>
<path transform="translate(1209,767)" d="m0 0h5l-1 4-3 5-4 2 2-4 3-5h-2z" fill="#BB9B4A"/>
<path transform="translate(1095,1303)" d="m0 0 3 1-10 9h-2v-3h3v-2h2l2-4z" fill="#906671"/>
<path transform="translate(1102,1195)" d="m0 0 2 1-5 6 3 1-4 2h-3l2-5z" fill="#BB9B4A"/>
<path transform="translate(1154,1107)" d="m0 0 4 3 2-3 1 7-1 2-4-1-2-5z" fill="#B8984C"/>
<path transform="translate(1103,1045)" d="m0 0h10l1 2-2 1h-8l-2-2z" fill="#BB9B4A"/>
<path transform="translate(615 1e3)" d="m0 0h4l-1 7h-3l-2-3v-3z" fill="#B48E54"/>
<path transform="translate(1124,983)" d="m0 0 2 4-1 7-2 6h-1l1-16z" fill="#743984"/>
<path transform="translate(802,947)" d="m0 0h1l-1 9-1 6h-2l-1-11 2 3z" fill="#BFA155"/>
<path transform="translate(1088,910)" d="m0 0h2l-3 6h-2l-1 4-2 2-1-3 6-8z" fill="#743A85"/>
<path transform="translate(836,780)" d="m0 0 2 1-2 5-3 3-2-4zm-7 6 2 1-2 1z" fill="#784288"/>
<path transform="translate(840,751)" d="m0 0h1l-1 20-3 4v-5l1-1z" fill="#BB9B4A"/>
<path transform="translate(1077,1216)" d="m0 0 2 3 1 3-3 3h-2v-2l-3-1 4-1z" fill="#74448C"/>
<path transform="translate(821,823)" d="m0 0 4 2-1 4 2 1v5l-4-5-1-1z" fill="#743B85"/>
<path transform="translate(1146,763)" d="m0 0 2 1-1 6-2 2h-3l2-8z" fill="#BB9B4A"/>
<path transform="translate(934,727)" d="m0 0 4 2 5 6-3 1-2-4-4-2z" fill="#743C86"/>
<path transform="translate(1024,1276)" d="m0 0 4 2 7 7-3 1-7-7z" fill="#BB9B4A"/>
<path transform="translate(1129,1257)" d="m0 0h2l-2 4-9 7-2-1 3-1v-2l4-3h2z" fill="#B5944E"/>
<path transform="translate(1314,910)" d="m0 0 3 1v3h3l3 6-1 3-1-4-3-1z" fill="#90606D"/>
<path transform="translate(1303,891)" d="m0 0 5 4 2 3v3l-4-2-3-6z" fill="#8D5E70"/>
<path transform="translate(986,775)" d="m0 0 5 2 1 4h-2v-2h-2v5l-1-3h-2z" fill="#BD9D49"/>
<path transform="translate(842,739)" d="m0 0 1 4-1 16h-1l-1-9v-4z" fill="#946C6D"/>
<path transform="translate(847,733)" d="m0 0 1 3-2 6-3 1v-6z" fill="#794080"/>
<path transform="translate(1026,735)" d="m0 0h3l-2 6-2 2-3-3z" fill="#B5944E"/>
<path transform="translate(968,711)" d="m0 0 1 2h2l1 4v7l-2 1-2-10z" fill="#97706B"/>
<path transform="translate(871,1139)" d="m0 0 4 1 2 4 4 2 1 3-4-2-5-5v-2z" fill="#B8974C"/>
<path transform="translate(966,1107)" d="m0 0 1 3-9 10-2-1 2-3h2l2-4z" fill="#BB9B4A"/>
<path transform="translate(980,1092)" d="m0 0 1 3-9 9-2-1z" fill="#BB9B4A"/>
<path transform="translate(810,1059)" d="m0 0h3l1 4v8l-2-3z" fill="#84527A"/>
<path transform="translate(946,951)" d="m0 0 3 1-5 4-7 6v-3l5-5z" fill="#CAAA43"/>
<path transform="translate(1280,885)" d="m0 0 4 1 8 8-2 2-6-7z" fill="#BB9B4A"/>
<path transform="translate(834,860)" d="m0 0h2l2 7v7h-2z" fill="#743984"/>
<path transform="translate(915,853)" d="m0 0h7l-1 2-13 2 2-3z" fill="#743C86"/>
<path transform="translate(1291,809)" d="m0 0h4l-2 6h-4l1-5z" fill="#B08D53"/>
<path transform="translate(1103,1281)" d="m0 0v3l-9 9-2-2z" fill="#BB9B4A"/>
<path transform="translate(1150,1239)" d="m0 0 2 2-8 7-3 2v-3z" fill="#BB9B4A"/>
<path transform="translate(1254,1160)" d="m0 0 4 1-7 7h-2l2-4z" fill="#8C6074"/>
<path transform="translate(1132,1028)" d="m0 0 2 1-2 3h-2v2l-8 5v-3l6-4 3-1z" fill="#BB9B4A"/>
<path transform="translate(1193,997)" d="m0 0 1 4-4 11h-2l1-4 3-10z" fill="#B8974C"/>
<path transform="translate(468,971)" d="m0 0h2l-2 7h2v2h-6z" fill="#743C86"/>
<path transform="translate(1215,780)" d="m0 0 3 1-1 5-4 1 1-5z" fill="#B5944F"/>
<path transform="translate(967,748)" d="m0 0h5l2 4-1 3-5-4z" fill="#732CA8"/>
<path transform="translate(847,728)" d="m0 0 2 3 1 2-2 6-2-1 1-4h-2l-1 2 1-5z" fill="#A57E5C"/>
<path transform="translate(1125,722)" d="m0 0 2 1-4 5-7 1 4-4z" fill="#97706B"/>
</svg>
